<?xml version="1.0" encoding="utf-8" standalone="no"?>
<!DOCTYPE svg PUBLIC "-//W3C//DTD SVG 1.1//EN"
  "http://www.w3.org/Graphics/SVG/1.1/DTD/svg11.dtd">
<svg xmlns:xlink="http://www.w3.org/1999/xlink" width="703.542857pt" height="496.8pt" viewBox="0 0 703.542857 496.8" xmlns="http://www.w3.org/2000/svg" version="1.1">
 <metadata>
  <rdf:RDF xmlns:dc="http://purl.org/dc/elements/1.1/" xmlns:cc="http://creativecommons.org/ns#" xmlns:rdf="http://www.w3.org/1999/02/22-rdf-syntax-ns#">
   <cc:Work>
    <dc:type rdf:resource="http://purl.org/dc/dcmitype/StillImage"/>
    <dc:date>2026-04-19T21:04:44.429243</dc:date>
    <dc:format>image/svg+xml</dc:format>
    <dc:creator>
     <cc:Agent>
      <dc:title>Matplotlib v3.10.8, https://matplotlib.org/</dc:title>
     </cc:Agent>
    </dc:creator>
   </cc:Work>
  </rdf:RDF>
 </metadata>
 <defs>
  <style type="text/css">*{stroke-linejoin: round; stroke-linecap: butt}</style>
 </defs>
 <g id="figure_1">
  <g id="patch_1">
   <path d="M 0 496.8 
L 703.542857 496.8 
L 703.542857 0 
L 0 0 
L 0 496.8 
z
" style="fill: none"/>
  </g>
  <g id="axes_1">
   <g id="patch_2">
    <path d="M 227.725714 155.365714 
L 475.817143 155.365714 
Q 486.154286 155.365714 486.154286 145.028571 
L 486.154286 48.548571 
Q 486.154286 38.211429 475.817143 38.211429 
L 227.725714 38.211429 
Q 217.388571 38.211429 217.388571 48.548571 
L 217.388571 145.028571 
Q 217.388571 155.365714 227.725714 155.365714 
z
" clip-path="url(#p348340ab17)" style="fill: #eeedfe; stroke: #7f77dd; stroke-width: 1.5; stroke-linejoin: miter"/>
   </g>
   <g id="patch_3">
    <path d="M 227.725714 431.022857 
L 475.817143 431.022857 
Q 486.154286 431.022857 486.154286 420.685714 
L 486.154286 324.205714 
Q 486.154286 313.868571 475.817143 313.868571 
L 227.725714 313.868571 
Q 217.388571 313.868571 217.388571 324.205714 
L 217.388571 420.685714 
Q 217.388571 431.022857 227.725714 431.022857 
z
" clip-path="url(#p348340ab17)" style="fill: #e1f5ee; stroke: #1d9e75; stroke-width: 1.5; stroke-linejoin: miter"/>
   </g>
   <g id="patch_4">
    <path d="M 503.382857 269.074286 
L 654.994286 269.074286 
Q 661.885714 269.074286 661.885714 262.182857 
L 661.885714 207.051429 
Q 661.885714 200.16 654.994286 200.16 
L 503.382857 200.16 
Q 496.491429 200.16 496.491429 207.051429 
L 496.491429 262.182857 
Q 496.491429 269.074286 503.382857 269.074286 
z
" clip-path="url(#p348340ab17)" style="fill: #faece7; stroke: #f0997b; stroke-width: 1.2; stroke-linejoin: miter"/>
   </g>
   <g id="patch_5">
    <path d="M 41.657143 241.508571 
L 193.268571 241.508571 
Q 200.16 241.508571 200.16 234.617143 
L 200.16 179.485714 
Q 200.16 172.594286 193.268571 172.594286 
L 41.657143 172.594286 
Q 34.765714 172.594286 34.765714 179.485714 
L 34.765714 234.617143 
Q 34.765714 241.508571 41.657143 241.508571 
z
" clip-path="url(#p348340ab17)" style="fill: #e6f1fb; stroke: #85b7eb; stroke-width: 1.2; stroke-linejoin: miter"/>
   </g>
   <g id="patch_6">
    <path d="M 41.657143 310.422857 
L 193.268571 310.422857 
Q 200.16 310.422857 200.16 303.531429 
L 200.16 248.4 
Q 200.16 241.508571 193.268571 241.508571 
L 41.657143 241.508571 
Q 34.765714 241.508571 34.765714 248.4 
L 34.765714 303.531429 
Q 34.765714 310.422857 41.657143 310.422857 
z
" clip-path="url(#p348340ab17)" style="fill: #faeeda; stroke: #ef9f27; stroke-width: 1.2; stroke-linejoin: miter"/>
   </g>
   <g id="text_1">
    <!-- Agent -->
    <g style="fill: #3c3489" transform="translate(324.908929 83.85) scale(0.16 -0.16)">
     <defs>
      <path id="DejaVuSans-Bold-41" d="M 3419 850 
L 1538 850 
L 1241 0 
L 31 0 
L 1759 4666 
L 3194 4666 
L 4922 0 
L 3713 0 
L 3419 850 
z
M 1838 1716 
L 3116 1716 
L 2478 3572 
L 1838 1716 
z
" transform="scale(0.015625)"/>
      <path id="DejaVuSans-Bold-67" d="M 2919 594 
Q 2688 288 2409 144 
Q 2131 0 1766 0 
Q 1125 0 706 504 
Q 288 1009 288 1791 
Q 288 2575 706 3076 
Q 1125 3578 1766 3578 
Q 2131 3578 2409 3434 
Q 2688 3291 2919 2981 
L 2919 3500 
L 4044 3500 
L 4044 353 
Q 4044 -491 3511 -936 
Q 2978 -1381 1966 -1381 
Q 1638 -1381 1331 -1331 
Q 1025 -1281 716 -1178 
L 716 -306 
Q 1009 -475 1290 -558 
Q 1572 -641 1856 -641 
Q 2406 -641 2662 -400 
Q 2919 -159 2919 353 
L 2919 594 
z
M 2181 2772 
Q 1834 2772 1640 2515 
Q 1447 2259 1447 1791 
Q 1447 1309 1634 1061 
Q 1822 813 2181 813 
Q 2531 813 2725 1069 
Q 2919 1325 2919 1791 
Q 2919 2259 2725 2515 
Q 2531 2772 2181 2772 
z
" transform="scale(0.015625)"/>
      <path id="DejaVuSans-Bold-65" d="M 4031 1759 
L 4031 1441 
L 1416 1441 
Q 1456 1047 1700 850 
Q 1944 653 2381 653 
Q 2734 653 3104 758 
Q 3475 863 3866 1075 
L 3866 213 
Q 3469 63 3072 -14 
Q 2675 -91 2278 -91 
Q 1328 -91 801 392 
Q 275 875 275 1747 
Q 275 2603 792 3093 
Q 1309 3584 2216 3584 
Q 3041 3584 3536 3087 
Q 4031 2591 4031 1759 
z
M 2881 2131 
Q 2881 2450 2695 2645 
Q 2509 2841 2209 2841 
Q 1884 2841 1681 2658 
Q 1478 2475 1428 2131 
L 2881 2131 
z
" transform="scale(0.015625)"/>
      <path id="DejaVuSans-Bold-6e" d="M 4056 2131 
L 4056 0 
L 2931 0 
L 2931 347 
L 2931 1631 
Q 2931 2084 2911 2256 
Q 2891 2428 2841 2509 
Q 2775 2619 2662 2680 
Q 2550 2741 2406 2741 
Q 2056 2741 1856 2470 
Q 1656 2200 1656 1722 
L 1656 0 
L 538 0 
L 538 3500 
L 1656 3500 
L 1656 2988 
Q 1909 3294 2193 3439 
Q 2478 3584 2822 3584 
Q 3428 3584 3742 3212 
Q 4056 2841 4056 2131 
z
" transform="scale(0.015625)"/>
      <path id="DejaVuSans-Bold-74" d="M 1759 4494 
L 1759 3500 
L 2913 3500 
L 2913 2700 
L 1759 2700 
L 1759 1216 
Q 1759 972 1856 886 
Q 1953 800 2241 800 
L 2816 800 
L 2816 0 
L 1856 0 
Q 1194 0 917 276 
Q 641 553 641 1216 
L 641 2700 
L 84 2700 
L 84 3500 
L 641 3500 
L 641 4494 
L 1759 4494 
z
" transform="scale(0.015625)"/>
     </defs>
     <use xlink:href="#DejaVuSans-Bold-41"/>
     <use xlink:href="#DejaVuSans-Bold-67" transform="translate(77.392578 0)"/>
     <use xlink:href="#DejaVuSans-Bold-65" transform="translate(148.974609 0)"/>
     <use xlink:href="#DejaVuSans-Bold-6e" transform="translate(216.796875 0)"/>
     <use xlink:href="#DejaVuSans-Bold-74" transform="translate(287.988281 0)"/>
    </g>
   </g>
   <g id="text_2">
    <!-- Policy $\pi_{\theta}(a \mid s)$ -->
    <g style="fill: #3c3489" transform="translate(305.621429 124.548571) scale(0.13 -0.13)">
     <defs>
      <path id="DejaVuSans-50" d="M 1259 4147 
L 1259 2394 
L 2053 2394 
Q 2494 2394 2734 2622 
Q 2975 2850 2975 3272 
Q 2975 3691 2734 3919 
Q 2494 4147 2053 4147 
L 1259 4147 
z
M 628 4666 
L 2053 4666 
Q 2838 4666 3239 4311 
Q 3641 3956 3641 3272 
Q 3641 2581 3239 2228 
Q 2838 1875 2053 1875 
L 1259 1875 
L 1259 0 
L 628 0 
L 628 4666 
z
" transform="scale(0.015625)"/>
      <path id="DejaVuSans-6f" d="M 1959 3097 
Q 1497 3097 1228 2736 
Q 959 2375 959 1747 
Q 959 1119 1226 758 
Q 1494 397 1959 397 
Q 2419 397 2687 759 
Q 2956 1122 2956 1747 
Q 2956 2369 2687 2733 
Q 2419 3097 1959 3097 
z
M 1959 3584 
Q 2709 3584 3137 3096 
Q 3566 2609 3566 1747 
Q 3566 888 3137 398 
Q 2709 -91 1959 -91 
Q 1206 -91 779 398 
Q 353 888 353 1747 
Q 353 2609 779 3096 
Q 1206 3584 1959 3584 
z
" transform="scale(0.015625)"/>
      <path id="DejaVuSans-6c" d="M 603 4863 
L 1178 4863 
L 1178 0 
L 603 0 
L 603 4863 
z
" transform="scale(0.015625)"/>
      <path id="DejaVuSans-69" d="M 603 3500 
L 1178 3500 
L 1178 0 
L 603 0 
L 603 3500 
z
M 603 4863 
L 1178 4863 
L 1178 4134 
L 603 4134 
L 603 4863 
z
" transform="scale(0.015625)"/>
      <path id="DejaVuSans-63" d="M 3122 3366 
L 3122 2828 
Q 2878 2963 2633 3030 
Q 2388 3097 2138 3097 
Q 1578 3097 1268 2742 
Q 959 2388 959 1747 
Q 959 1106 1268 751 
Q 1578 397 2138 397 
Q 2388 397 2633 464 
Q 2878 531 3122 666 
L 3122 134 
Q 2881 22 2623 -34 
Q 2366 -91 2075 -91 
Q 1284 -91 818 406 
Q 353 903 353 1747 
Q 353 2603 823 3093 
Q 1294 3584 2113 3584 
Q 2378 3584 2631 3529 
Q 2884 3475 3122 3366 
z
" transform="scale(0.015625)"/>
      <path id="DejaVuSans-79" d="M 2059 -325 
Q 1816 -950 1584 -1140 
Q 1353 -1331 966 -1331 
L 506 -1331 
L 506 -850 
L 844 -850 
Q 1081 -850 1212 -737 
Q 1344 -625 1503 -206 
L 1606 56 
L 191 3500 
L 800 3500 
L 1894 763 
L 2988 3500 
L 3597 3500 
L 2059 -325 
z
" transform="scale(0.015625)"/>
      <path id="DejaVuSans-20" transform="scale(0.015625)"/>
      <path id="DejaVuSans-Oblique-3c0" d="M 584 3500 
L 3938 3500 
L 3825 2925 
L 3384 2925 
L 2966 775 
Q 2922 550 2981 450 
Q 3038 353 3209 353 
Q 3256 353 3325 363 
Q 3397 369 3419 372 
L 3338 -44 
Q 3222 -84 3103 -103 
Q 2981 -122 2866 -122 
Q 2491 -122 2388 81 
Q 2284 288 2391 838 
L 2797 2925 
L 1506 2925 
L 938 0 
L 350 0 
L 919 2925 
L 472 2925 
L 584 3500 
z
" transform="scale(0.015625)"/>
      <path id="DejaVuSans-Oblique-3b8" d="M 2913 2219 
L 925 2219 
Q 791 1284 928 888 
Q 1100 400 1566 400 
Q 2034 400 2391 891 
Q 2703 1322 2913 2219 
z
M 3009 2750 
Q 3094 3638 2984 3950 
Q 2813 4444 2353 4444 
Q 1875 4444 1525 3956 
Q 1250 3563 1034 2750 
L 3009 2750 
z
M 2444 4913 
Q 3194 4913 3494 4250 
Q 3794 3591 3566 2422 
Q 3341 1256 2781 594 
Q 2225 -72 1475 -72 
Q 722 -72 425 594 
Q 128 1256 353 2422 
Q 581 3591 1134 4250 
Q 1691 4913 2444 4913 
z
" transform="scale(0.015625)"/>
      <path id="DejaVuSans-28" d="M 1984 4856 
Q 1566 4138 1362 3434 
Q 1159 2731 1159 2009 
Q 1159 1288 1364 580 
Q 1569 -128 1984 -844 
L 1484 -844 
Q 1016 -109 783 600 
Q 550 1309 550 2009 
Q 550 2706 781 3412 
Q 1013 4119 1484 4856 
L 1984 4856 
z
" transform="scale(0.015625)"/>
      <path id="DejaVuSans-Oblique-61" d="M 3438 1997 
L 3047 0 
L 2472 0 
L 2578 531 
Q 2325 219 2001 64 
Q 1678 -91 1281 -91 
Q 834 -91 548 182 
Q 263 456 263 884 
Q 263 1497 752 1853 
Q 1241 2209 2100 2209 
L 2900 2209 
L 2931 2363 
Q 2938 2388 2941 2417 
Q 2944 2447 2944 2509 
Q 2944 2788 2717 2942 
Q 2491 3097 2081 3097 
Q 1800 3097 1504 3025 
Q 1209 2953 897 2809 
L 997 3341 
Q 1322 3463 1633 3523 
Q 1944 3584 2234 3584 
Q 2853 3584 3176 3315 
Q 3500 3047 3500 2534 
Q 3500 2431 3484 2292 
Q 3469 2153 3438 1997 
z
M 2816 1759 
L 2241 1759 
Q 1534 1759 1195 1570 
Q 856 1381 856 984 
Q 856 709 1029 553 
Q 1203 397 1509 397 
Q 1978 397 2328 733 
Q 2678 1069 2791 1631 
L 2816 1759 
z
" transform="scale(0.015625)"/>
      <path id="DejaVuSans-2223" d="M 1350 4934 
L 1850 4934 
L 1850 -1369 
L 1350 -1369 
L 1350 4934 
z
" transform="scale(0.015625)"/>
      <path id="DejaVuSans-Oblique-73" d="M 3200 3397 
L 3091 2853 
Q 2863 2978 2609 3040 
Q 2356 3103 2088 3103 
Q 1634 3103 1373 2948 
Q 1113 2794 1113 2528 
Q 1113 2219 1719 2053 
Q 1766 2041 1788 2034 
L 1972 1978 
Q 2547 1819 2739 1644 
Q 2931 1469 2931 1166 
Q 2931 609 2489 259 
Q 2047 -91 1331 -91 
Q 1053 -91 747 -37 
Q 441 16 72 128 
L 184 722 
Q 500 559 806 475 
Q 1113 391 1394 391 
Q 1816 391 2080 572 
Q 2344 753 2344 1031 
Q 2344 1331 1650 1516 
L 1591 1531 
L 1394 1581 
Q 956 1697 753 1886 
Q 550 2075 550 2369 
Q 550 2928 970 3256 
Q 1391 3584 2113 3584 
Q 2397 3584 2667 3537 
Q 2938 3491 3200 3397 
z
" transform="scale(0.015625)"/>
      <path id="DejaVuSans-29" d="M 513 4856 
L 1013 4856 
Q 1481 4119 1714 3412 
Q 1947 2706 1947 2009 
Q 1947 1309 1714 600 
Q 1481 -109 1013 -844 
L 513 -844 
Q 928 -128 1133 580 
Q 1338 1288 1338 2009 
Q 1338 2731 1133 3434 
Q 928 4138 513 4856 
z
" transform="scale(0.015625)"/>
     </defs>
     <use xlink:href="#DejaVuSans-50" transform="translate(0 0.90625)"/>
     <use xlink:href="#DejaVuSans-6f" transform="translate(60.302734 0.90625)"/>
     <use xlink:href="#DejaVuSans-6c" transform="translate(121.484375 0.90625)"/>
     <use xlink:href="#DejaVuSans-69" transform="translate(149.267578 0.90625)"/>
     <use xlink:href="#DejaVuSans-63" transform="translate(177.050781 0.90625)"/>
     <use xlink:href="#DejaVuSans-79" transform="translate(232.03125 0.90625)"/>
     <use xlink:href="#DejaVuSans-20" transform="translate(291.210938 0.90625)"/>
     <use xlink:href="#DejaVuSans-Oblique-3c0" transform="translate(322.998047 0.90625)"/>
     <use xlink:href="#DejaVuSans-Oblique-3b8" transform="translate(383.203125 -15.5) scale(0.7)"/>
     <use xlink:href="#DejaVuSans-28" transform="translate(428.764648 0.90625)"/>
     <use xlink:href="#DejaVuSans-Oblique-61" transform="translate(467.77832 0.90625)"/>
     <use xlink:href="#DejaVuSans-2223" transform="translate(548.540039 0.90625)"/>
     <use xlink:href="#DejaVuSans-Oblique-73" transform="translate(618.022461 0.90625)"/>
     <use xlink:href="#DejaVuSans-29" transform="translate(670.12207 0.90625)"/>
    </g>
   </g>
   <g id="text_3">
    <!-- Environment -->
    <g style="fill: #085041" transform="translate(294.236429 359.632143) scale(0.16 -0.16)">
     <defs>
      <path id="DejaVuSans-Bold-45" d="M 588 4666 
L 3834 4666 
L 3834 3756 
L 1791 3756 
L 1791 2888 
L 3713 2888 
L 3713 1978 
L 1791 1978 
L 1791 909 
L 3903 909 
L 3903 0 
L 588 0 
L 588 4666 
z
" transform="scale(0.015625)"/>
      <path id="DejaVuSans-Bold-76" d="M 97 3500 
L 1216 3500 
L 2088 1081 
L 2956 3500 
L 4078 3500 
L 2700 0 
L 1472 0 
L 97 3500 
z
" transform="scale(0.015625)"/>
      <path id="DejaVuSans-Bold-69" d="M 538 3500 
L 1656 3500 
L 1656 0 
L 538 0 
L 538 3500 
z
M 538 4863 
L 1656 4863 
L 1656 3950 
L 538 3950 
L 538 4863 
z
" transform="scale(0.015625)"/>
      <path id="DejaVuSans-Bold-72" d="M 3138 2547 
Q 2991 2616 2845 2648 
Q 2700 2681 2553 2681 
Q 2122 2681 1889 2404 
Q 1656 2128 1656 1613 
L 1656 0 
L 538 0 
L 538 3500 
L 1656 3500 
L 1656 2925 
Q 1872 3269 2151 3426 
Q 2431 3584 2822 3584 
Q 2878 3584 2943 3579 
Q 3009 3575 3134 3559 
L 3138 2547 
z
" transform="scale(0.015625)"/>
      <path id="DejaVuSans-Bold-6f" d="M 2203 2784 
Q 1831 2784 1636 2517 
Q 1441 2250 1441 1747 
Q 1441 1244 1636 976 
Q 1831 709 2203 709 
Q 2569 709 2762 976 
Q 2956 1244 2956 1747 
Q 2956 2250 2762 2517 
Q 2569 2784 2203 2784 
z
M 2203 3584 
Q 3106 3584 3614 3096 
Q 4122 2609 4122 1747 
Q 4122 884 3614 396 
Q 3106 -91 2203 -91 
Q 1297 -91 786 396 
Q 275 884 275 1747 
Q 275 2609 786 3096 
Q 1297 3584 2203 3584 
z
" transform="scale(0.015625)"/>
      <path id="DejaVuSans-Bold-6d" d="M 3781 2919 
Q 3994 3244 4286 3414 
Q 4578 3584 4928 3584 
Q 5531 3584 5847 3212 
Q 6163 2841 6163 2131 
L 6163 0 
L 5038 0 
L 5038 1825 
Q 5041 1866 5042 1909 
Q 5044 1953 5044 2034 
Q 5044 2406 4934 2573 
Q 4825 2741 4581 2741 
Q 4263 2741 4089 2478 
Q 3916 2216 3909 1719 
L 3909 0 
L 2784 0 
L 2784 1825 
Q 2784 2406 2684 2573 
Q 2584 2741 2328 2741 
Q 2006 2741 1831 2477 
Q 1656 2213 1656 1722 
L 1656 0 
L 531 0 
L 531 3500 
L 1656 3500 
L 1656 2988 
Q 1863 3284 2130 3434 
Q 2397 3584 2719 3584 
Q 3081 3584 3359 3409 
Q 3638 3234 3781 2919 
z
" transform="scale(0.015625)"/>
     </defs>
     <use xlink:href="#DejaVuSans-Bold-45"/>
     <use xlink:href="#DejaVuSans-Bold-6e" transform="translate(68.310547 0)"/>
     <use xlink:href="#DejaVuSans-Bold-76" transform="translate(139.501953 0)"/>
     <use xlink:href="#DejaVuSans-Bold-69" transform="translate(204.6875 0)"/>
     <use xlink:href="#DejaVuSans-Bold-72" transform="translate(238.964844 0)"/>
     <use xlink:href="#DejaVuSans-Bold-6f" transform="translate(288.28125 0)"/>
     <use xlink:href="#DejaVuSans-Bold-6e" transform="translate(356.982422 0)"/>
     <use xlink:href="#DejaVuSans-Bold-6d" transform="translate(428.173828 0)"/>
     <use xlink:href="#DejaVuSans-Bold-65" transform="translate(532.373047 0)"/>
     <use xlink:href="#DejaVuSans-Bold-6e" transform="translate(600.195312 0)"/>
     <use xlink:href="#DejaVuSans-Bold-74" transform="translate(671.386719 0)"/>
    </g>
   </g>
   <g id="text_4">
    <!-- $P(s' \mid s, a), \; R(s, a, s')$ -->
    <g style="fill: #085041" transform="translate(287.291429 400.205714) scale(0.13 -0.13)">
     <defs>
      <path id="DejaVuSans-Oblique-50" d="M 1081 4666 
L 2541 4666 
Q 3178 4666 3512 4369 
Q 3847 4072 3847 3500 
Q 3847 2731 3353 2303 
Q 2859 1875 1966 1875 
L 1172 1875 
L 806 0 
L 172 0 
L 1081 4666 
z
M 1613 4147 
L 1275 2394 
L 2069 2394 
Q 2606 2394 2893 2669 
Q 3181 2944 3181 3456 
Q 3181 3784 2986 3965 
Q 2791 4147 2438 4147 
L 1613 4147 
z
" transform="scale(0.015625)"/>
      <path id="Cmsy10-30" d="M 225 347 
Q 184 359 184 409 
L 966 3316 
Q 1003 3434 1093 3506 
Q 1184 3578 1300 3578 
Q 1450 3578 1564 3479 
Q 1678 3381 1678 3231 
Q 1678 3166 1644 3084 
L 488 319 
Q 466 275 428 275 
Q 394 275 320 306 
Q 247 338 225 347 
z
" transform="scale(0.015625)"/>
      <path id="DejaVuSans-2c" d="M 750 794 
L 1409 794 
L 1409 256 
L 897 -744 
L 494 -744 
L 750 256 
L 750 794 
z
" transform="scale(0.015625)"/>
      <path id="DejaVuSans-Oblique-52" d="M 1613 4147 
L 1294 2491 
L 2106 2491 
Q 2584 2491 2879 2755 
Q 3175 3019 3175 3444 
Q 3175 3784 2976 3965 
Q 2778 4147 2406 4147 
L 1613 4147 
z
M 2772 2241 
Q 2972 2194 3105 2009 
Q 3238 1825 3413 1275 
L 3809 0 
L 3144 0 
L 2778 1197 
Q 2638 1659 2453 1815 
Q 2269 1972 1888 1972 
L 1191 1972 
L 806 0 
L 172 0 
L 1081 4666 
L 2503 4666 
Q 3150 4666 3495 4373 
Q 3841 4081 3841 3531 
Q 3841 3044 3547 2687 
Q 3253 2331 2772 2241 
z
" transform="scale(0.015625)"/>
     </defs>
     <use xlink:href="#DejaVuSans-Oblique-50" transform="translate(0 0.584375)"/>
     <use xlink:href="#DejaVuSans-28" transform="translate(60.302734 0.584375)"/>
     <use xlink:href="#DejaVuSans-Oblique-73" transform="translate(99.316406 0.584375)"/>
     <use xlink:href="#Cmsy10-30" transform="translate(156.065911 38.865625) scale(0.7)"/>
     <use xlink:href="#DejaVuSans-2223" transform="translate(197.525872 0.584375)"/>
     <use xlink:href="#DejaVuSans-Oblique-73" transform="translate(267.008294 0.584375)"/>
     <use xlink:href="#DejaVuSans-2c" transform="translate(319.107904 0.584375)"/>
     <use xlink:href="#DejaVuSans-Oblique-61" transform="translate(370.377435 0.584375)"/>
     <use xlink:href="#DejaVuSans-29" transform="translate(431.656732 0.584375)"/>
     <use xlink:href="#DejaVuSans-2c" transform="translate(470.670404 0.584375)"/>
     <use xlink:href="#DejaVuSans-Oblique-52" transform="translate(548.999071 0.584375)"/>
     <use xlink:href="#DejaVuSans-28" transform="translate(618.481493 0.584375)"/>
     <use xlink:href="#DejaVuSans-Oblique-73" transform="translate(657.495164 0.584375)"/>
     <use xlink:href="#DejaVuSans-2c" transform="translate(709.594774 0.584375)"/>
     <use xlink:href="#DejaVuSans-Oblique-61" transform="translate(760.864305 0.584375)"/>
     <use xlink:href="#DejaVuSans-2c" transform="translate(822.143602 0.584375)"/>
     <use xlink:href="#DejaVuSans-Oblique-73" transform="translate(873.413133 0.584375)"/>
     <use xlink:href="#Cmsy10-30" transform="translate(930.162638 38.865625) scale(0.7)"/>
     <use xlink:href="#DejaVuSans-29" transform="translate(952.140177 0.584375)"/>
    </g>
   </g>
   <g id="patch_7">
    <path d="M 475.817143 157.363446 
Q 475.817143 234.615404 475.817143 309.631294 
" style="fill: none; stroke: #7f77dd; stroke-width: 2; stroke-linecap: round"/>
    <path d="M 477.817143 305.631294 
L 475.817143 309.631294 
L 473.817143 305.631294 
" style="fill: none; stroke: #7f77dd; stroke-width: 2; stroke-linecap: round"/>
   </g>
   <g id="text_5">
    <!-- Action $a_t$ -->
    <g style="fill: #712b13" transform="translate(547.663571 238.20433) scale(0.13 -0.13)">
     <defs>
      <path id="DejaVuSans-Bold-63" d="M 3366 3391 
L 3366 2478 
Q 3138 2634 2908 2709 
Q 2678 2784 2431 2784 
Q 1963 2784 1702 2511 
Q 1441 2238 1441 1747 
Q 1441 1256 1702 982 
Q 1963 709 2431 709 
Q 2694 709 2930 787 
Q 3166 866 3366 1019 
L 3366 103 
Q 3103 6 2833 -42 
Q 2563 -91 2291 -91 
Q 1344 -91 809 395 
Q 275 881 275 1747 
Q 275 2613 809 3098 
Q 1344 3584 2291 3584 
Q 2566 3584 2833 3536 
Q 3100 3488 3366 3391 
z
" transform="scale(0.015625)"/>
      <path id="DejaVuSans-Bold-20" transform="scale(0.015625)"/>
      <path id="DejaVuSans-Oblique-74" d="M 2706 3500 
L 2619 3053 
L 1472 3053 
L 1100 1153 
Q 1081 1047 1072 975 
Q 1063 903 1063 863 
Q 1063 663 1183 572 
Q 1303 481 1569 481 
L 2150 481 
L 2053 0 
L 1503 0 
Q 991 0 739 200 
Q 488 400 488 806 
Q 488 878 497 964 
Q 506 1050 525 1153 
L 897 3053 
L 409 3053 
L 500 3500 
L 978 3500 
L 1172 4494 
L 1747 4494 
L 1556 3500 
L 2706 3500 
z
" transform="scale(0.015625)"/>
     </defs>
     <use xlink:href="#DejaVuSans-Bold-41" transform="translate(0 0.015625)"/>
     <use xlink:href="#DejaVuSans-Bold-63" transform="translate(77.392578 0.015625)"/>
     <use xlink:href="#DejaVuSans-Bold-74" transform="translate(136.669922 0.015625)"/>
     <use xlink:href="#DejaVuSans-Bold-69" transform="translate(184.472656 0.015625)"/>
     <use xlink:href="#DejaVuSans-Bold-6f" transform="translate(218.75 0.015625)"/>
     <use xlink:href="#DejaVuSans-Bold-6e" transform="translate(287.451172 0.015625)"/>
     <use xlink:href="#DejaVuSans-Bold-20" transform="translate(358.642578 0.015625)"/>
     <use xlink:href="#DejaVuSans-Oblique-61" transform="translate(393.457031 0.015625)"/>
     <use xlink:href="#DejaVuSans-Oblique-74" transform="translate(454.736328 -16.390625) scale(0.7)"/>
    </g>
   </g>
   <g id="patch_8">
    <path d="M 227.725714 311.870839 
Q 227.725714 234.618882 227.725714 159.602992 
" style="fill: none; stroke: #1d9e75; stroke-width: 2; stroke-linecap: round"/>
    <path d="M 225.725714 163.602992 
L 227.725714 159.602992 
L 229.725714 163.602992 
" style="fill: none; stroke: #1d9e75; stroke-width: 2; stroke-linecap: round"/>
   </g>
   <g id="text_6">
    <!-- State $s_{t}$ -->
    <g style="fill: #0c447c" transform="translate(90.097857 210.638616) scale(0.13 -0.13)">
     <defs>
      <path id="DejaVuSans-Bold-53" d="M 3834 4519 
L 3834 3531 
Q 3450 3703 3084 3790 
Q 2719 3878 2394 3878 
Q 1963 3878 1756 3759 
Q 1550 3641 1550 3391 
Q 1550 3203 1689 3098 
Q 1828 2994 2194 2919 
L 2706 2816 
Q 3484 2659 3812 2340 
Q 4141 2022 4141 1434 
Q 4141 663 3683 286 
Q 3225 -91 2284 -91 
Q 1841 -91 1394 -6 
Q 947 78 500 244 
L 500 1259 
Q 947 1022 1364 901 
Q 1781 781 2169 781 
Q 2563 781 2772 912 
Q 2981 1044 2981 1288 
Q 2981 1506 2839 1625 
Q 2697 1744 2272 1838 
L 1806 1941 
Q 1106 2091 782 2419 
Q 459 2747 459 3303 
Q 459 4000 909 4375 
Q 1359 4750 2203 4750 
Q 2588 4750 2994 4692 
Q 3400 4634 3834 4519 
z
" transform="scale(0.015625)"/>
      <path id="DejaVuSans-Bold-61" d="M 2106 1575 
Q 1756 1575 1579 1456 
Q 1403 1338 1403 1106 
Q 1403 894 1545 773 
Q 1688 653 1941 653 
Q 2256 653 2472 879 
Q 2688 1106 2688 1447 
L 2688 1575 
L 2106 1575 
z
M 3816 1997 
L 3816 0 
L 2688 0 
L 2688 519 
Q 2463 200 2181 54 
Q 1900 -91 1497 -91 
Q 953 -91 614 226 
Q 275 544 275 1050 
Q 275 1666 698 1953 
Q 1122 2241 2028 2241 
L 2688 2241 
L 2688 2328 
Q 2688 2594 2478 2717 
Q 2269 2841 1825 2841 
Q 1466 2841 1156 2769 
Q 847 2697 581 2553 
L 581 3406 
Q 941 3494 1303 3539 
Q 1666 3584 2028 3584 
Q 2975 3584 3395 3211 
Q 3816 2838 3816 1997 
z
" transform="scale(0.015625)"/>
     </defs>
     <use xlink:href="#DejaVuSans-Bold-53" transform="translate(0 0.78125)"/>
     <use xlink:href="#DejaVuSans-Bold-74" transform="translate(72.021484 0.78125)"/>
     <use xlink:href="#DejaVuSans-Bold-61" transform="translate(119.824219 0.78125)"/>
     <use xlink:href="#DejaVuSans-Bold-74" transform="translate(187.304688 0.78125)"/>
     <use xlink:href="#DejaVuSans-Bold-65" transform="translate(235.107422 0.78125)"/>
     <use xlink:href="#DejaVuSans-Bold-20" transform="translate(302.929688 0.78125)"/>
     <use xlink:href="#DejaVuSans-Oblique-73" transform="translate(337.744141 0.78125)"/>
     <use xlink:href="#DejaVuSans-Oblique-74" transform="translate(389.84375 -15.625) scale(0.7)"/>
    </g>
   </g>
   <g id="text_7">
    <!-- Reward $r_t$ -->
    <g style="fill: #633806" transform="translate(82.882857 279.552902) scale(0.13 -0.13)">
     <defs>
      <path id="DejaVuSans-Bold-52" d="M 2297 2597 
Q 2675 2597 2839 2737 
Q 3003 2878 3003 3200 
Q 3003 3519 2839 3656 
Q 2675 3794 2297 3794 
L 1791 3794 
L 1791 2597 
L 2297 2597 
z
M 1791 1766 
L 1791 0 
L 588 0 
L 588 4666 
L 2425 4666 
Q 3347 4666 3776 4356 
Q 4206 4047 4206 3378 
Q 4206 2916 3982 2619 
Q 3759 2322 3309 2181 
Q 3556 2125 3751 1926 
Q 3947 1728 4147 1325 
L 4800 0 
L 3519 0 
L 2950 1159 
Q 2778 1509 2601 1637 
Q 2425 1766 2131 1766 
L 1791 1766 
z
" transform="scale(0.015625)"/>
      <path id="DejaVuSans-Bold-77" d="M 225 3500 
L 1313 3500 
L 1900 1088 
L 2491 3500 
L 3425 3500 
L 4013 1113 
L 4603 3500 
L 5691 3500 
L 4769 0 
L 3547 0 
L 2956 2406 
L 2369 0 
L 1147 0 
L 225 3500 
z
" transform="scale(0.015625)"/>
      <path id="DejaVuSans-Bold-64" d="M 2919 2988 
L 2919 4863 
L 4044 4863 
L 4044 0 
L 2919 0 
L 2919 506 
Q 2688 197 2409 53 
Q 2131 -91 1766 -91 
Q 1119 -91 703 423 
Q 288 938 288 1747 
Q 288 2556 703 3070 
Q 1119 3584 1766 3584 
Q 2128 3584 2408 3439 
Q 2688 3294 2919 2988 
z
M 2181 722 
Q 2541 722 2730 984 
Q 2919 1247 2919 1747 
Q 2919 2247 2730 2509 
Q 2541 2772 2181 2772 
Q 1825 2772 1636 2509 
Q 1447 2247 1447 1747 
Q 1447 1247 1636 984 
Q 1825 722 2181 722 
z
" transform="scale(0.015625)"/>
      <path id="DejaVuSans-Oblique-72" d="M 2853 2969 
Q 2766 3016 2653 3041 
Q 2541 3066 2413 3066 
Q 1953 3066 1609 2717 
Q 1266 2369 1153 1784 
L 800 0 
L 225 0 
L 909 3500 
L 1484 3500 
L 1375 2956 
Q 1603 3259 1920 3421 
Q 2238 3584 2597 3584 
Q 2691 3584 2781 3573 
Q 2872 3563 2963 3538 
L 2853 2969 
z
" transform="scale(0.015625)"/>
     </defs>
     <use xlink:href="#DejaVuSans-Bold-52" transform="translate(0 0.015625)"/>
     <use xlink:href="#DejaVuSans-Bold-65" transform="translate(77.001953 0.015625)"/>
     <use xlink:href="#DejaVuSans-Bold-77" transform="translate(144.824219 0.015625)"/>
     <use xlink:href="#DejaVuSans-Bold-61" transform="translate(237.207031 0.015625)"/>
     <use xlink:href="#DejaVuSans-Bold-72" transform="translate(304.6875 0.015625)"/>
     <use xlink:href="#DejaVuSans-Bold-64" transform="translate(354.003906 0.015625)"/>
     <use xlink:href="#DejaVuSans-Bold-20" transform="translate(425.585938 0.015625)"/>
     <use xlink:href="#DejaVuSans-Oblique-72" transform="translate(460.400391 0.015625)"/>
     <use xlink:href="#DejaVuSans-Oblique-74" transform="translate(501.513672 -16.390625) scale(0.7)"/>
    </g>
   </g>
   <g id="text_8">
    <!-- At each time step $t$: agent observes $s_t$, takes $a_t$ according to policy $\pi_{\theta}$, transitions to $s_{t+1}$ -->
    <g style="fill: #5f5e5a" transform="translate(106.636429 471.950714) scale(0.11 -0.11)">
     <defs>
      <path id="DejaVuSans-41" d="M 2188 4044 
L 1331 1722 
L 3047 1722 
L 2188 4044 
z
M 1831 4666 
L 2547 4666 
L 4325 0 
L 3669 0 
L 3244 1197 
L 1141 1197 
L 716 0 
L 50 0 
L 1831 4666 
z
" transform="scale(0.015625)"/>
      <path id="DejaVuSans-74" d="M 1172 4494 
L 1172 3500 
L 2356 3500 
L 2356 3053 
L 1172 3053 
L 1172 1153 
Q 1172 725 1289 603 
Q 1406 481 1766 481 
L 2356 481 
L 2356 0 
L 1766 0 
Q 1100 0 847 248 
Q 594 497 594 1153 
L 594 3053 
L 172 3053 
L 172 3500 
L 594 3500 
L 594 4494 
L 1172 4494 
z
" transform="scale(0.015625)"/>
      <path id="DejaVuSans-65" d="M 3597 1894 
L 3597 1613 
L 953 1613 
Q 991 1019 1311 708 
Q 1631 397 2203 397 
Q 2534 397 2845 478 
Q 3156 559 3463 722 
L 3463 178 
Q 3153 47 2828 -22 
Q 2503 -91 2169 -91 
Q 1331 -91 842 396 
Q 353 884 353 1716 
Q 353 2575 817 3079 
Q 1281 3584 2069 3584 
Q 2775 3584 3186 3129 
Q 3597 2675 3597 1894 
z
M 3022 2063 
Q 3016 2534 2758 2815 
Q 2500 3097 2075 3097 
Q 1594 3097 1305 2825 
Q 1016 2553 972 2059 
L 3022 2063 
z
" transform="scale(0.015625)"/>
      <path id="DejaVuSans-61" d="M 2194 1759 
Q 1497 1759 1228 1600 
Q 959 1441 959 1056 
Q 959 750 1161 570 
Q 1363 391 1709 391 
Q 2188 391 2477 730 
Q 2766 1069 2766 1631 
L 2766 1759 
L 2194 1759 
z
M 3341 1997 
L 3341 0 
L 2766 0 
L 2766 531 
Q 2569 213 2275 61 
Q 1981 -91 1556 -91 
Q 1019 -91 701 211 
Q 384 513 384 1019 
Q 384 1609 779 1909 
Q 1175 2209 1959 2209 
L 2766 2209 
L 2766 2266 
Q 2766 2663 2505 2880 
Q 2244 3097 1772 3097 
Q 1472 3097 1187 3025 
Q 903 2953 641 2809 
L 641 3341 
Q 956 3463 1253 3523 
Q 1550 3584 1831 3584 
Q 2591 3584 2966 3190 
Q 3341 2797 3341 1997 
z
" transform="scale(0.015625)"/>
      <path id="DejaVuSans-68" d="M 3513 2113 
L 3513 0 
L 2938 0 
L 2938 2094 
Q 2938 2591 2744 2837 
Q 2550 3084 2163 3084 
Q 1697 3084 1428 2787 
Q 1159 2491 1159 1978 
L 1159 0 
L 581 0 
L 581 4863 
L 1159 4863 
L 1159 2956 
Q 1366 3272 1645 3428 
Q 1925 3584 2291 3584 
Q 2894 3584 3203 3211 
Q 3513 2838 3513 2113 
z
" transform="scale(0.015625)"/>
      <path id="DejaVuSans-6d" d="M 3328 2828 
Q 3544 3216 3844 3400 
Q 4144 3584 4550 3584 
Q 5097 3584 5394 3201 
Q 5691 2819 5691 2113 
L 5691 0 
L 5113 0 
L 5113 2094 
Q 5113 2597 4934 2840 
Q 4756 3084 4391 3084 
Q 3944 3084 3684 2787 
Q 3425 2491 3425 1978 
L 3425 0 
L 2847 0 
L 2847 2094 
Q 2847 2600 2669 2842 
Q 2491 3084 2119 3084 
Q 1678 3084 1418 2786 
Q 1159 2488 1159 1978 
L 1159 0 
L 581 0 
L 581 3500 
L 1159 3500 
L 1159 2956 
Q 1356 3278 1631 3431 
Q 1906 3584 2284 3584 
Q 2666 3584 2933 3390 
Q 3200 3197 3328 2828 
z
" transform="scale(0.015625)"/>
      <path id="DejaVuSans-73" d="M 2834 3397 
L 2834 2853 
Q 2591 2978 2328 3040 
Q 2066 3103 1784 3103 
Q 1356 3103 1142 2972 
Q 928 2841 928 2578 
Q 928 2378 1081 2264 
Q 1234 2150 1697 2047 
L 1894 2003 
Q 2506 1872 2764 1633 
Q 3022 1394 3022 966 
Q 3022 478 2636 193 
Q 2250 -91 1575 -91 
Q 1294 -91 989 -36 
Q 684 19 347 128 
L 347 722 
Q 666 556 975 473 
Q 1284 391 1588 391 
Q 1994 391 2212 530 
Q 2431 669 2431 922 
Q 2431 1156 2273 1281 
Q 2116 1406 1581 1522 
L 1381 1569 
Q 847 1681 609 1914 
Q 372 2147 372 2553 
Q 372 3047 722 3315 
Q 1072 3584 1716 3584 
Q 2034 3584 2315 3537 
Q 2597 3491 2834 3397 
z
" transform="scale(0.015625)"/>
      <path id="DejaVuSans-70" d="M 1159 525 
L 1159 -1331 
L 581 -1331 
L 581 3500 
L 1159 3500 
L 1159 2969 
Q 1341 3281 1617 3432 
Q 1894 3584 2278 3584 
Q 2916 3584 3314 3078 
Q 3713 2572 3713 1747 
Q 3713 922 3314 415 
Q 2916 -91 2278 -91 
Q 1894 -91 1617 61 
Q 1341 213 1159 525 
z
M 3116 1747 
Q 3116 2381 2855 2742 
Q 2594 3103 2138 3103 
Q 1681 3103 1420 2742 
Q 1159 2381 1159 1747 
Q 1159 1113 1420 752 
Q 1681 391 2138 391 
Q 2594 391 2855 752 
Q 3116 1113 3116 1747 
z
" transform="scale(0.015625)"/>
      <path id="DejaVuSans-3a" d="M 750 794 
L 1409 794 
L 1409 0 
L 750 0 
L 750 794 
z
M 750 3309 
L 1409 3309 
L 1409 2516 
L 750 2516 
L 750 3309 
z
" transform="scale(0.015625)"/>
      <path id="DejaVuSans-67" d="M 2906 1791 
Q 2906 2416 2648 2759 
Q 2391 3103 1925 3103 
Q 1463 3103 1205 2759 
Q 947 2416 947 1791 
Q 947 1169 1205 825 
Q 1463 481 1925 481 
Q 2391 481 2648 825 
Q 2906 1169 2906 1791 
z
M 3481 434 
Q 3481 -459 3084 -895 
Q 2688 -1331 1869 -1331 
Q 1566 -1331 1297 -1286 
Q 1028 -1241 775 -1147 
L 775 -588 
Q 1028 -725 1275 -790 
Q 1522 -856 1778 -856 
Q 2344 -856 2625 -561 
Q 2906 -266 2906 331 
L 2906 616 
Q 2728 306 2450 153 
Q 2172 0 1784 0 
Q 1141 0 747 490 
Q 353 981 353 1791 
Q 353 2603 747 3093 
Q 1141 3584 1784 3584 
Q 2172 3584 2450 3431 
Q 2728 3278 2906 2969 
L 2906 3500 
L 3481 3500 
L 3481 434 
z
" transform="scale(0.015625)"/>
      <path id="DejaVuSans-6e" d="M 3513 2113 
L 3513 0 
L 2938 0 
L 2938 2094 
Q 2938 2591 2744 2837 
Q 2550 3084 2163 3084 
Q 1697 3084 1428 2787 
Q 1159 2491 1159 1978 
L 1159 0 
L 581 0 
L 581 3500 
L 1159 3500 
L 1159 2956 
Q 1366 3272 1645 3428 
Q 1925 3584 2291 3584 
Q 2894 3584 3203 3211 
Q 3513 2838 3513 2113 
z
" transform="scale(0.015625)"/>
      <path id="DejaVuSans-62" d="M 3116 1747 
Q 3116 2381 2855 2742 
Q 2594 3103 2138 3103 
Q 1681 3103 1420 2742 
Q 1159 2381 1159 1747 
Q 1159 1113 1420 752 
Q 1681 391 2138 391 
Q 2594 391 2855 752 
Q 3116 1113 3116 1747 
z
M 1159 2969 
Q 1341 3281 1617 3432 
Q 1894 3584 2278 3584 
Q 2916 3584 3314 3078 
Q 3713 2572 3713 1747 
Q 3713 922 3314 415 
Q 2916 -91 2278 -91 
Q 1894 -91 1617 61 
Q 1341 213 1159 525 
L 1159 0 
L 581 0 
L 581 4863 
L 1159 4863 
L 1159 2969 
z
" transform="scale(0.015625)"/>
      <path id="DejaVuSans-72" d="M 2631 2963 
Q 2534 3019 2420 3045 
Q 2306 3072 2169 3072 
Q 1681 3072 1420 2755 
Q 1159 2438 1159 1844 
L 1159 0 
L 581 0 
L 581 3500 
L 1159 3500 
L 1159 2956 
Q 1341 3275 1631 3429 
Q 1922 3584 2338 3584 
Q 2397 3584 2469 3576 
Q 2541 3569 2628 3553 
L 2631 2963 
z
" transform="scale(0.015625)"/>
      <path id="DejaVuSans-76" d="M 191 3500 
L 800 3500 
L 1894 563 
L 2988 3500 
L 3597 3500 
L 2284 0 
L 1503 0 
L 191 3500 
z
" transform="scale(0.015625)"/>
      <path id="DejaVuSans-6b" d="M 581 4863 
L 1159 4863 
L 1159 1991 
L 2875 3500 
L 3609 3500 
L 1753 1863 
L 3688 0 
L 2938 0 
L 1159 1709 
L 1159 0 
L 581 0 
L 581 4863 
z
" transform="scale(0.015625)"/>
      <path id="DejaVuSans-64" d="M 2906 2969 
L 2906 4863 
L 3481 4863 
L 3481 0 
L 2906 0 
L 2906 525 
Q 2725 213 2448 61 
Q 2172 -91 1784 -91 
Q 1150 -91 751 415 
Q 353 922 353 1747 
Q 353 2572 751 3078 
Q 1150 3584 1784 3584 
Q 2172 3584 2448 3432 
Q 2725 3281 2906 2969 
z
M 947 1747 
Q 947 1113 1208 752 
Q 1469 391 1925 391 
Q 2381 391 2643 752 
Q 2906 1113 2906 1747 
Q 2906 2381 2643 2742 
Q 2381 3103 1925 3103 
Q 1469 3103 1208 2742 
Q 947 2381 947 1747 
z
" transform="scale(0.015625)"/>
      <path id="DejaVuSans-2b" d="M 2944 4013 
L 2944 2272 
L 4684 2272 
L 4684 1741 
L 2944 1741 
L 2944 0 
L 2419 0 
L 2419 1741 
L 678 1741 
L 678 2272 
L 2419 2272 
L 2419 4013 
L 2944 4013 
z
" transform="scale(0.015625)"/>
      <path id="DejaVuSans-31" d="M 794 531 
L 1825 531 
L 1825 4091 
L 703 3866 
L 703 4441 
L 1819 4666 
L 2450 4666 
L 2450 531 
L 3481 531 
L 3481 0 
L 794 0 
L 794 531 
z
" transform="scale(0.015625)"/>
     </defs>
     <use xlink:href="#DejaVuSans-41" transform="translate(0 0.015625)"/>
     <use xlink:href="#DejaVuSans-74" transform="translate(68.408203 0.015625)"/>
     <use xlink:href="#DejaVuSans-20" transform="translate(107.617188 0.015625)"/>
     <use xlink:href="#DejaVuSans-65" transform="translate(139.404297 0.015625)"/>
     <use xlink:href="#DejaVuSans-61" transform="translate(200.927734 0.015625)"/>
     <use xlink:href="#DejaVuSans-63" transform="translate(262.207031 0.015625)"/>
     <use xlink:href="#DejaVuSans-68" transform="translate(317.1875 0.015625)"/>
     <use xlink:href="#DejaVuSans-20" transform="translate(380.566406 0.015625)"/>
     <use xlink:href="#DejaVuSans-74" transform="translate(412.353516 0.015625)"/>
     <use xlink:href="#DejaVuSans-69" transform="translate(451.5625 0.015625)"/>
     <use xlink:href="#DejaVuSans-6d" transform="translate(479.345703 0.015625)"/>
     <use xlink:href="#DejaVuSans-65" transform="translate(576.757812 0.015625)"/>
     <use xlink:href="#DejaVuSans-20" transform="translate(638.28125 0.015625)"/>
     <use xlink:href="#DejaVuSans-73" transform="translate(670.068359 0.015625)"/>
     <use xlink:href="#DejaVuSans-74" transform="translate(722.167969 0.015625)"/>
     <use xlink:href="#DejaVuSans-65" transform="translate(761.376953 0.015625)"/>
     <use xlink:href="#DejaVuSans-70" transform="translate(822.900391 0.015625)"/>
     <use xlink:href="#DejaVuSans-20" transform="translate(886.376953 0.015625)"/>
     <use xlink:href="#DejaVuSans-Oblique-74" transform="translate(918.164062 0.015625)"/>
     <use xlink:href="#DejaVuSans-3a" transform="translate(957.373047 0.015625)"/>
     <use xlink:href="#DejaVuSans-20" transform="translate(991.064453 0.015625)"/>
     <use xlink:href="#DejaVuSans-61" transform="translate(1022.851562 0.015625)"/>
     <use xlink:href="#DejaVuSans-67" transform="translate(1084.130859 0.015625)"/>
     <use xlink:href="#DejaVuSans-65" transform="translate(1147.607422 0.015625)"/>
     <use xlink:href="#DejaVuSans-6e" transform="translate(1209.130859 0.015625)"/>
     <use xlink:href="#DejaVuSans-74" transform="translate(1272.509766 0.015625)"/>
     <use xlink:href="#DejaVuSans-20" transform="translate(1311.71875 0.015625)"/>
     <use xlink:href="#DejaVuSans-6f" transform="translate(1343.505859 0.015625)"/>
     <use xlink:href="#DejaVuSans-62" transform="translate(1404.6875 0.015625)"/>
     <use xlink:href="#DejaVuSans-73" transform="translate(1468.164062 0.015625)"/>
     <use xlink:href="#DejaVuSans-65" transform="translate(1520.263672 0.015625)"/>
     <use xlink:href="#DejaVuSans-72" transform="translate(1581.787109 0.015625)"/>
     <use xlink:href="#DejaVuSans-76" transform="translate(1622.900391 0.015625)"/>
     <use xlink:href="#DejaVuSans-65" transform="translate(1682.080078 0.015625)"/>
     <use xlink:href="#DejaVuSans-73" transform="translate(1743.603516 0.015625)"/>
     <use xlink:href="#DejaVuSans-20" transform="translate(1795.703125 0.015625)"/>
     <use xlink:href="#DejaVuSans-Oblique-73" transform="translate(1827.490234 0.015625)"/>
     <use xlink:href="#DejaVuSans-Oblique-74" transform="translate(1879.589844 -16.390625) scale(0.7)"/>
     <use xlink:href="#DejaVuSans-2c" transform="translate(1909.770508 0.015625)"/>
     <use xlink:href="#DejaVuSans-20" transform="translate(1941.557617 0.015625)"/>
     <use xlink:href="#DejaVuSans-74" transform="translate(1973.344727 0.015625)"/>
     <use xlink:href="#DejaVuSans-61" transform="translate(2012.553711 0.015625)"/>
     <use xlink:href="#DejaVuSans-6b" transform="translate(2073.833008 0.015625)"/>
     <use xlink:href="#DejaVuSans-65" transform="translate(2131.743164 0.015625)"/>
     <use xlink:href="#DejaVuSans-73" transform="translate(2193.266602 0.015625)"/>
     <use xlink:href="#DejaVuSans-20" transform="translate(2245.366211 0.015625)"/>
     <use xlink:href="#DejaVuSans-Oblique-61" transform="translate(2277.15332 0.015625)"/>
     <use xlink:href="#DejaVuSans-Oblique-74" transform="translate(2338.432617 -16.390625) scale(0.7)"/>
     <use xlink:href="#DejaVuSans-20" transform="translate(2368.613281 0.015625)"/>
     <use xlink:href="#DejaVuSans-61" transform="translate(2400.400391 0.015625)"/>
     <use xlink:href="#DejaVuSans-63" transform="translate(2461.679688 0.015625)"/>
     <use xlink:href="#DejaVuSans-63" transform="translate(2516.660156 0.015625)"/>
     <use xlink:href="#DejaVuSans-6f" transform="translate(2571.640625 0.015625)"/>
     <use xlink:href="#DejaVuSans-72" transform="translate(2632.822266 0.015625)"/>
     <use xlink:href="#DejaVuSans-64" transform="translate(2673.935547 0.015625)"/>
     <use xlink:href="#DejaVuSans-69" transform="translate(2737.412109 0.015625)"/>
     <use xlink:href="#DejaVuSans-6e" transform="translate(2765.195312 0.015625)"/>
     <use xlink:href="#DejaVuSans-67" transform="translate(2828.574219 0.015625)"/>
     <use xlink:href="#DejaVuSans-20" transform="translate(2892.050781 0.015625)"/>
     <use xlink:href="#DejaVuSans-74" transform="translate(2923.837891 0.015625)"/>
     <use xlink:href="#DejaVuSans-6f" transform="translate(2963.046875 0.015625)"/>
     <use xlink:href="#DejaVuSans-20" transform="translate(3024.228516 0.015625)"/>
     <use xlink:href="#DejaVuSans-70" transform="translate(3056.015625 0.015625)"/>
     <use xlink:href="#DejaVuSans-6f" transform="translate(3119.492188 0.015625)"/>
     <use xlink:href="#DejaVuSans-6c" transform="translate(3180.673828 0.015625)"/>
     <use xlink:href="#DejaVuSans-69" transform="translate(3208.457031 0.015625)"/>
     <use xlink:href="#DejaVuSans-63" transform="translate(3236.240234 0.015625)"/>
     <use xlink:href="#DejaVuSans-79" transform="translate(3291.220703 0.015625)"/>
     <use xlink:href="#DejaVuSans-20" transform="translate(3350.400391 0.015625)"/>
     <use xlink:href="#DejaVuSans-Oblique-3c0" transform="translate(3382.1875 0.015625)"/>
     <use xlink:href="#DejaVuSans-Oblique-3b8" transform="translate(3442.392578 -16.390625) scale(0.7)"/>
     <use xlink:href="#DejaVuSans-2c" transform="translate(3487.954102 0.015625)"/>
     <use xlink:href="#DejaVuSans-20" transform="translate(3519.741211 0.015625)"/>
     <use xlink:href="#DejaVuSans-74" transform="translate(3551.52832 0.015625)"/>
     <use xlink:href="#DejaVuSans-72" transform="translate(3590.737305 0.015625)"/>
     <use xlink:href="#DejaVuSans-61" transform="translate(3631.850586 0.015625)"/>
     <use xlink:href="#DejaVuSans-6e" transform="translate(3693.129883 0.015625)"/>
     <use xlink:href="#DejaVuSans-73" transform="translate(3756.508789 0.015625)"/>
     <use xlink:href="#DejaVuSans-69" transform="translate(3808.608398 0.015625)"/>
     <use xlink:href="#DejaVuSans-74" transform="translate(3836.391602 0.015625)"/>
     <use xlink:href="#DejaVuSans-69" transform="translate(3875.600586 0.015625)"/>
     <use xlink:href="#DejaVuSans-6f" transform="translate(3903.383789 0.015625)"/>
     <use xlink:href="#DejaVuSans-6e" transform="translate(3964.56543 0.015625)"/>
     <use xlink:href="#DejaVuSans-73" transform="translate(4027.944336 0.015625)"/>
     <use xlink:href="#DejaVuSans-20" transform="translate(4080.043945 0.015625)"/>
     <use xlink:href="#DejaVuSans-74" transform="translate(4111.831055 0.015625)"/>
     <use xlink:href="#DejaVuSans-6f" transform="translate(4151.040039 0.015625)"/>
     <use xlink:href="#DejaVuSans-20" transform="translate(4212.22168 0.015625)"/>
     <use xlink:href="#DejaVuSans-Oblique-73" transform="translate(4244.008789 0.015625)"/>
     <use xlink:href="#DejaVuSans-Oblique-74" transform="translate(4296.108398 -16.390625) scale(0.7)"/>
     <use xlink:href="#DejaVuSans-2b" transform="translate(4337.192383 -16.390625) scale(0.7)"/>
     <use xlink:href="#DejaVuSans-31" transform="translate(4409.482422 -16.390625) scale(0.7)"/>
    </g>
   </g>
  </g>
 </g>
 <defs>
  <clipPath id="p348340ab17">
   <rect x="7.2" y="7.2" width="689.142857" height="482.4"/>
  </clipPath>
 </defs>
</svg>
